<svg xmlns="http://www.w3.org/2000/svg" viewBox="0 0 256 256" width="256" height="256" role="img" aria-label="a patient monitor showing vitals traces and numbers">
  <defs>
    <linearGradient id="mn-case" x1="0" y1="0" x2="0" y2="1">
      <stop offset="0" stop-color="#f2f2ee"/><stop offset=".6" stop-color="#dcdcd6"/><stop offset="1" stop-color="#b4b4ad"/>
    </linearGradient>
    <linearGradient id="mn-glass" x1=".15" y1="0" x2=".85" y2="1">
      <stop offset="0" stop-color="#2a3138"/><stop offset=".5" stop-color="#12171c"/><stop offset="1" stop-color="#080b0e"/>
    </linearGradient>
  </defs>
  <ellipse cx="128" cy="238" rx="86" ry="8" fill="#000" opacity=".18"/>

  <rect x="20" y="24" width="216" height="200" rx="14" fill="url(#mn-case)"/>
  <rect x="32" y="36" width="192" height="150" rx="6" fill="url(#mn-glass)"/>

  <g opacity=".9">
    <rect x="36" y="40" width="184" height="9" rx="2" fill="#0e6b62"/>
    <rect x="36" y="177" width="184" height="5" rx="2" fill="#0e6b62"/>
  </g>

  <g fill="none" stroke-width="3.2" stroke-linecap="round" stroke-linejoin="round">
    <path d="M40 74 h14 l5 -13 l6 26 l5 -13 h13 l5 -13 l6 26 l5 -13 h13 l5 -13 l6 26 l5 -13 h14" stroke="#39e06a"/>
    <path d="M40 112 c8 0 9 -18 15 -18 c6 0 8 18 13 18 c7 0 8 -18 14 -18 c6 0 8 18 13 18 c7 0 8 -18 14 -18 c6 0 8 18 13 18 h21" stroke="#3fd2e6"/>
    <path d="M40 152 c10 -4 12 -22 22 -22 c10 0 12 22 22 22 c10 0 12 -22 22 -22 c10 0 12 22 22 22" stroke="#ecd23c"/>
  </g>

  <g>
    <rect x="146" y="56" width="72" height="34" rx="4" fill="#1c242b"/>
    <text x="154" y="82" font-family="Menlo,monospace" font-size="26" font-weight="700" fill="#39e06a">60</text>
    <rect x="146" y="94" width="72" height="34" rx="4" fill="#1c242b"/>
    <text x="152" y="120" font-family="Menlo,monospace" font-size="19" font-weight="700" fill="#f2f2ee">120/80</text>
    <rect x="146" y="132" width="72" height="34" rx="4" fill="#1c242b"/>
    <text x="154" y="158" font-family="Menlo,monospace" font-size="26" font-weight="700" fill="#3fd2e6">98</text>
  </g>

  <g>
    <rect x="34" y="196" width="42" height="16" rx="8" fill="#4aa76e"/>
    <rect x="88" y="196" width="20" height="16" rx="4" fill="#c9862f"/>
    <rect x="114" y="196" width="20" height="16" rx="4" fill="#8b9098"/>
    <rect x="140" y="196" width="20" height="16" rx="4" fill="#3f7fc4"/>
    <circle cx="212" cy="204" r="14" fill="#c9c9c2"/><circle cx="212" cy="204" r="9" fill="#9a9a93"/>
  </g>
</svg>
